<svg width="177" height="177" viewBox="0 0 177 177" fill="none" xmlns="http://www.w3.org/2000/svg">
<path d="M7.60547 4.63243C6.15352 5.11642 4.83984 6.5822 4.53562 8.06181C3.94101 10.9104 6.78961 13.759 9.6382 13.1644C11.7816 12.7219 13.4409 10.537 13.2335 8.47665C13.0814 7.0247 11.989 5.53126 10.6062 4.85368C9.76266 4.45267 8.46281 4.35587 7.60547 4.63243Z" fill="white" fill-opacity="0.15"/>
<path d="M25.3978 4.63234C23.3097 5.32375 21.8993 7.61922 22.3279 9.63812C22.6736 11.2837 24.2085 12.8186 25.8403 13.1643C28.5229 13.7312 31.3024 11.2007 31.0258 8.47656C30.8737 7.02461 29.7813 5.53117 28.3985 4.85359C27.555 4.45258 26.2551 4.35578 25.3978 4.63234Z" fill="white" fill-opacity="0.15"/>
<path d="M43.1941 4.63243C41.7421 5.11642 40.4285 6.5822 40.1242 8.06181C39.5296 10.9104 42.3782 13.759 45.2268 13.1644C47.3702 12.7219 49.0296 10.537 48.8221 8.47665C48.67 7.0247 47.5776 5.53126 46.1948 4.85368C45.3513 4.45267 44.0514 4.35587 43.1941 4.63243Z" fill="white" fill-opacity="0.15"/>
<path d="M60.9889 4.63243C59.5369 5.11642 58.2233 6.5822 57.919 8.06181C57.3244 10.9104 60.173 13.759 63.0216 13.1644C65.165 12.7219 66.8244 10.537 66.6169 8.47665C66.4648 7.0247 65.3724 5.53126 63.9896 4.85368C63.1461 4.45267 61.8462 4.35587 60.9889 4.63243Z" fill="white" fill-opacity="0.15"/>
<path d="M78.7837 4.63243C77.3317 5.11642 76.0181 6.5822 75.7138 8.06181C75.1192 10.9104 77.9678 13.759 80.8164 13.1644C82.9598 12.7219 84.6192 10.537 84.4117 8.47665C84.2596 7.0247 83.1672 5.53126 81.7844 4.85368C80.9409 4.45267 79.641 4.35587 78.7837 4.63243Z" fill="white" fill-opacity="0.15"/>
<path d="M96.5785 4.63243C95.1265 5.11642 93.8129 6.5822 93.5086 8.06181C92.914 10.9104 95.7626 13.759 98.6112 13.1644C100.755 12.7219 102.414 10.537 102.207 8.47665C102.054 7.0247 100.962 5.53126 99.5792 4.85368C98.7357 4.45267 97.4358 4.35587 96.5785 4.63243Z" fill="white" fill-opacity="0.15"/>
<path d="M114.373 4.63243C112.921 5.11642 111.608 6.5822 111.303 8.06181C110.709 10.9104 113.557 13.759 116.406 13.1644C118.549 12.7219 120.209 10.537 120.001 8.47665C119.849 7.0247 118.757 5.53126 117.374 4.85368C116.53 4.45267 115.231 4.35587 114.373 4.63243Z" fill="white" fill-opacity="0.15"/>
<path d="M132.168 4.63243C130.716 5.11642 129.402 6.5822 129.098 8.06181C128.504 10.9104 131.352 13.759 134.201 13.1644C136.344 12.7219 138.004 10.537 137.796 8.47665C137.644 7.0247 136.552 5.53126 135.169 4.85368C134.325 4.45267 133.025 4.35587 132.168 4.63243Z" fill="white" fill-opacity="0.15"/>
<path d="M149.964 4.63233C148.512 5.11632 147.198 6.5821 146.894 8.06171C146.548 9.6796 147.337 11.4358 148.858 12.4729C150.337 13.4962 152.024 13.51 153.518 12.5144C155.965 10.8826 156.297 7.84046 154.251 5.80772C153.075 4.61851 151.388 4.16218 149.964 4.63233Z" fill="white" fill-opacity="0.15"/>
<path d="M167.744 4.63233C166.292 5.11632 164.978 6.5821 164.674 8.06171C164.328 9.6796 165.116 11.4358 166.637 12.4729C168.117 13.4962 169.804 13.51 171.297 12.5144C173.745 10.8826 174.077 7.84046 172.03 5.80772C170.855 4.61851 169.168 4.16218 167.744 4.63233Z" fill="white" fill-opacity="0.15"/>
<path d="M7.60547 22.3324C6.15352 22.8164 4.83984 24.2822 4.53562 25.7618C3.94101 28.6104 6.78961 31.4589 9.6382 30.8643C11.7816 30.4218 13.4409 28.237 13.2335 26.1766C13.0814 24.7247 11.989 23.2312 10.6062 22.5536C9.76266 22.1526 8.46281 22.0558 7.60547 22.3324Z" fill="white" fill-opacity="0.15"/>
<path d="M25.3978 22.3324C23.3097 23.0238 21.8993 25.3193 22.3279 27.3382C22.6736 28.9837 24.2085 30.5187 25.8403 30.8644C28.5229 31.4313 31.3024 28.9008 31.0258 26.1766C30.8737 24.7247 29.7813 23.2312 28.3985 22.5537C27.555 22.1526 26.2551 22.0559 25.3978 22.3324Z" fill="white" fill-opacity="0.15"/>
<path d="M43.1941 22.3324C41.7421 22.8164 40.4285 24.2822 40.1242 25.7618C39.5296 28.6104 42.3782 31.4589 45.2268 30.8643C47.3702 30.4218 49.0296 28.237 48.8221 26.1766C48.67 24.7247 47.5776 23.2312 46.1948 22.5536C45.3513 22.1526 44.0514 22.0558 43.1941 22.3324Z" fill="white" fill-opacity="0.15"/>
<path d="M60.9889 22.3324C59.5369 22.8164 58.2233 24.2822 57.919 25.7618C57.3244 28.6104 60.173 31.4589 63.0216 30.8643C65.165 30.4218 66.8244 28.237 66.6169 26.1766C66.4648 24.7247 65.3724 23.2312 63.9896 22.5536C63.1461 22.1526 61.8462 22.0558 60.9889 22.3324Z" fill="white" fill-opacity="0.15"/>
<path d="M78.7837 22.3324C77.3317 22.8164 76.0181 24.2822 75.7138 25.7618C75.1192 28.6104 77.9678 31.4589 80.8164 30.8643C82.9598 30.4218 84.6192 28.237 84.4117 26.1766C84.2596 24.7247 83.1672 23.2312 81.7844 22.5536C80.9409 22.1526 79.641 22.0558 78.7837 22.3324Z" fill="white" fill-opacity="0.15"/>
<path d="M96.5785 22.3324C95.1265 22.8164 93.8129 24.2822 93.5086 25.7618C92.914 28.6104 95.7626 31.4589 98.6112 30.8643C100.755 30.4218 102.414 28.237 102.207 26.1766C102.054 24.7247 100.962 23.2312 99.5792 22.5536C98.7357 22.1526 97.4358 22.0558 96.5785 22.3324Z" fill="white" fill-opacity="0.15"/>
<path d="M114.373 22.3324C112.921 22.8164 111.608 24.2822 111.303 25.7618C110.709 28.6104 113.557 31.4589 116.406 30.8643C118.549 30.4218 120.209 28.237 120.001 26.1766C119.849 24.7247 118.757 23.2312 117.374 22.5536C116.53 22.1526 115.231 22.0558 114.373 22.3324Z" fill="white" fill-opacity="0.15"/>
<path d="M132.168 22.3324C130.716 22.8164 129.402 24.2822 129.098 25.7618C128.504 28.6104 131.352 31.4589 134.201 30.8643C136.344 30.4218 138.004 28.237 137.796 26.1766C137.644 24.7247 136.552 23.2312 135.169 22.5536C134.325 22.1526 133.025 22.0558 132.168 22.3324Z" fill="white" fill-opacity="0.15"/>
<path d="M149.964 22.3324C148.512 22.8164 147.198 24.2822 146.894 25.7618C146.548 27.3797 147.337 29.1358 148.858 30.173C150.337 31.1962 152.024 31.2101 153.518 30.2144C155.965 28.5827 156.297 25.5405 154.251 23.5078C153.075 22.3186 151.388 21.8623 149.964 22.3324Z" fill="white" fill-opacity="0.15"/>
<path d="M167.744 22.3324C166.292 22.8164 164.978 24.2822 164.674 25.7618C164.328 27.3797 165.116 29.1358 166.637 30.173C168.117 31.1962 169.804 31.2101 171.297 30.2144C173.745 28.5827 174.077 25.5405 172.03 23.5078C170.855 22.3186 169.168 21.8623 167.744 22.3324Z" fill="white" fill-opacity="0.15"/>
<path d="M7.60547 40.0323C6.15352 40.5163 4.83984 41.9821 4.53562 43.4617C3.94101 46.3103 6.78961 49.1589 9.6382 48.5643C11.7816 48.1218 13.4409 45.9369 13.2335 43.8766C13.0814 42.4246 11.989 40.9312 10.6062 40.2536C9.76266 39.8526 8.46281 39.7558 7.60547 40.0323Z" fill="white" fill-opacity="0.15"/>
<path d="M25.4003 40.0323C23.9483 40.5163 22.6346 41.9821 22.3304 43.4617C21.7358 46.3103 24.5844 49.1589 27.433 48.5643C29.5764 48.1218 31.2357 45.9369 31.0283 43.8766C30.8762 42.4246 29.7838 40.9312 28.401 40.2536C27.5575 39.8526 26.2576 39.7558 25.4003 40.0323Z" fill="white" fill-opacity="0.15"/>
<path d="M43.1951 40.0323C41.7431 40.5163 40.4294 41.9821 40.1252 43.4617C39.5306 46.3103 42.3792 49.1589 45.2278 48.5643C47.3712 48.1218 49.0305 45.9369 48.8231 43.8766C48.671 42.4246 47.5786 40.9312 46.1958 40.2536C45.3523 39.8526 44.0524 39.7558 43.1951 40.0323Z" fill="white" fill-opacity="0.15"/>
<path d="M60.9899 40.0323C59.5379 40.5163 58.2242 41.9821 57.92 43.4617C57.3254 46.3103 60.174 49.1589 63.0226 48.5643C65.166 48.1218 66.8253 45.9369 66.6179 43.8766C66.4658 42.4246 65.3734 40.9312 63.9906 40.2536C63.1471 39.8526 61.8472 39.7558 60.9899 40.0323Z" fill="white" fill-opacity="0.15"/>
<path d="M78.7847 40.0323C77.3327 40.5163 76.019 41.9821 75.7148 43.4617C75.1202 46.3103 77.9688 49.1589 80.8174 48.5643C82.9608 48.1218 84.6201 45.9369 84.4127 43.8766C84.2606 42.4246 83.1682 40.9312 81.7854 40.2536C80.9419 39.8526 79.642 39.7558 78.7847 40.0323Z" fill="white" fill-opacity="0.15"/>
<path d="M96.5795 40.0323C95.1275 40.5163 93.8138 41.9821 93.5096 43.4617C92.915 46.3103 95.7636 49.1589 98.6122 48.5643C100.756 48.1218 102.415 45.9369 102.208 43.8766C102.055 42.4246 100.963 40.9312 99.5802 40.2536C98.7367 39.8526 97.4368 39.7558 96.5795 40.0323Z" fill="white" fill-opacity="0.15"/>
<path d="M114.374 40.0323C112.922 40.5163 111.609 41.9821 111.304 43.4617C110.71 46.3103 113.558 49.1589 116.407 48.5643C118.55 48.1218 120.21 45.9369 120.002 43.8766C119.85 42.4246 118.758 40.9312 117.375 40.2536C116.531 39.8526 115.232 39.7558 114.374 40.0323Z" fill="white" fill-opacity="0.15"/>
<path d="M132.169 40.0323C130.717 40.5163 129.403 41.9821 129.099 43.4617C128.505 46.3103 131.353 49.1589 134.202 48.5643C136.345 48.1218 138.005 45.9369 137.797 43.8766C137.645 42.4246 136.553 40.9312 135.17 40.2536C134.326 39.8526 133.026 39.7558 132.169 40.0323Z" fill="white" fill-opacity="0.15"/>
<path d="M149.964 40.0323C148.512 40.5163 147.198 41.9821 146.894 43.4617C146.299 46.3103 149.148 49.1589 151.997 48.5643C154.14 48.1218 155.799 45.9369 155.592 43.8766C155.44 42.4246 154.347 40.9312 152.965 40.2536C152.121 39.8526 150.821 39.7558 149.964 40.0323Z" fill="white" fill-opacity="0.15"/>
<path d="M167.759 40.0323C166.307 40.5163 164.993 41.9821 164.689 43.4617C164.094 46.3103 166.943 49.1589 169.791 48.5643C171.935 48.1218 173.594 45.9369 173.387 43.8766C173.235 42.4246 172.142 40.9312 170.759 40.2536C169.916 39.8526 168.616 39.7558 167.759 40.0323Z" fill="white" fill-opacity="0.15"/>
<path d="M7.60547 57.7324C6.15352 58.2164 4.83984 59.6822 4.53562 61.1618C3.94101 64.0104 6.78961 66.859 9.6382 66.2644C11.7816 65.8219 13.4409 63.637 13.2335 61.5766C13.0814 60.1247 11.989 58.6312 10.6062 57.9537C9.76266 57.5526 8.46281 57.4558 7.60547 57.7324Z" fill="white" fill-opacity="0.15"/>
<path d="M25.4003 57.7324C23.9483 58.2164 22.6346 59.6822 22.3304 61.1618C21.7358 64.0104 24.5844 66.859 27.433 66.2644C29.5764 65.8219 31.2357 63.637 31.0283 61.5766C30.8762 60.1247 29.7838 58.6312 28.401 57.9537C27.5575 57.5526 26.2576 57.4558 25.4003 57.7324Z" fill="white" fill-opacity="0.15"/>
<path d="M43.1951 57.7324C41.7431 58.2164 40.4294 59.6822 40.1252 61.1618C39.5306 64.0104 42.3792 66.859 45.2278 66.2644C47.3712 65.8219 49.0305 63.637 48.8231 61.5766C48.671 60.1247 47.5786 58.6312 46.1958 57.9537C45.3523 57.5526 44.0524 57.4558 43.1951 57.7324Z" fill="white" fill-opacity="0.15"/>
<path d="M60.9899 57.7324C59.5379 58.2164 58.2242 59.6822 57.92 61.1618C57.3254 64.0104 60.174 66.859 63.0226 66.2644C65.166 65.8219 66.8253 63.637 66.6179 61.5766C66.4658 60.1247 65.3734 58.6312 63.9906 57.9537C63.1471 57.5526 61.8472 57.4558 60.9899 57.7324Z" fill="white" fill-opacity="0.15"/>
<path d="M78.7847 57.7324C77.3327 58.2164 76.019 59.6822 75.7148 61.1618C75.1202 64.0104 77.9688 66.859 80.8174 66.2644C82.9608 65.8219 84.6201 63.637 84.4127 61.5766C84.2606 60.1247 83.1682 58.6312 81.7854 57.9537C80.9419 57.5526 79.642 57.4558 78.7847 57.7324Z" fill="white" fill-opacity="0.15"/>
<path d="M96.5795 57.7324C95.1275 58.2164 93.8138 59.6822 93.5096 61.1618C92.915 64.0104 95.7636 66.859 98.6122 66.2644C100.756 65.8219 102.415 63.637 102.208 61.5766C102.055 60.1247 100.963 58.6312 99.5802 57.9537C98.7367 57.5526 97.4368 57.4558 96.5795 57.7324Z" fill="white" fill-opacity="0.15"/>
<path d="M114.374 57.7324C112.922 58.2164 111.609 59.6822 111.304 61.1618C110.71 64.0104 113.558 66.859 116.407 66.2644C118.55 65.8219 120.21 63.637 120.002 61.5766C119.85 60.1247 118.758 58.6312 117.375 57.9537C116.531 57.5526 115.232 57.4558 114.374 57.7324Z" fill="white" fill-opacity="0.15"/>
<path d="M132.169 57.7324C130.717 58.2164 129.403 59.6822 129.099 61.1618C128.505 64.0104 131.353 66.859 134.202 66.2644C136.345 65.8219 138.005 63.637 137.797 61.5766C137.645 60.1247 136.553 58.6312 135.17 57.9537C134.326 57.5526 133.026 57.4558 132.169 57.7324Z" fill="white" fill-opacity="0.15"/>
<path d="M149.964 57.7324C148.512 58.2164 147.198 59.6822 146.894 61.1618C146.299 64.0104 149.148 66.859 151.997 66.2644C154.14 65.8219 155.799 63.637 155.592 61.5766C155.44 60.1247 154.347 58.6312 152.965 57.9537C152.121 57.5526 150.821 57.4558 149.964 57.7324Z" fill="white" fill-opacity="0.15"/>
<path d="M167.759 57.7324C166.307 58.2164 164.993 59.6822 164.689 61.1618C164.094 64.0104 166.943 66.859 169.791 66.2644C171.935 65.8219 173.594 63.637 173.387 61.5766C173.235 60.1247 172.142 58.6312 170.759 57.9537C169.916 57.5526 168.616 57.4558 167.759 57.7324Z" fill="white" fill-opacity="0.15"/>
<path d="M7.60547 75.4324C6.15352 75.9163 4.83984 77.3821 4.53562 78.8617C3.94101 81.7103 6.78961 84.5589 9.6382 83.9643C11.7816 83.5218 13.4409 81.337 13.2335 79.2766C13.0814 77.8246 11.989 76.3312 10.6062 75.6536C9.76266 75.2526 8.46281 75.1558 7.60547 75.4324Z" fill="white" fill-opacity="0.15"/>
<path d="M25.4003 75.4324C23.9483 75.9163 22.6346 77.3821 22.3304 78.8617C21.7358 81.7103 24.5844 84.5589 27.433 83.9643C29.5764 83.5218 31.2357 81.337 31.0283 79.2766C30.8762 77.8246 29.7838 76.3312 28.401 75.6536C27.5575 75.2526 26.2576 75.1558 25.4003 75.4324Z" fill="white" fill-opacity="0.15"/>
<path d="M43.1951 75.4324C41.7431 75.9163 40.4294 77.3821 40.1252 78.8617C39.5306 81.7103 42.3792 84.5589 45.2278 83.9643C47.3712 83.5218 49.0305 81.337 48.8231 79.2766C48.671 77.8246 47.5786 76.3312 46.1958 75.6536C45.3523 75.2526 44.0524 75.1558 43.1951 75.4324Z" fill="white" fill-opacity="0.15"/>
<path d="M60.9899 75.4324C59.5379 75.9163 58.2242 77.3821 57.92 78.8617C57.3254 81.7103 60.174 84.5589 63.0226 83.9643C65.166 83.5218 66.8253 81.337 66.6179 79.2766C66.4658 77.8246 65.3734 76.3312 63.9906 75.6536C63.1471 75.2526 61.8472 75.1558 60.9899 75.4324Z" fill="white" fill-opacity="0.15"/>
<path d="M78.7847 75.4324C77.3327 75.9163 76.019 77.3821 75.7148 78.8617C75.1202 81.7103 77.9688 84.5589 80.8174 83.9643C82.9608 83.5218 84.6201 81.337 84.4127 79.2766C84.2606 77.8246 83.1682 76.3312 81.7854 75.6536C80.9419 75.2526 79.642 75.1558 78.7847 75.4324Z" fill="white" fill-opacity="0.15"/>
<path d="M96.5795 75.4324C95.1275 75.9163 93.8138 77.3821 93.5096 78.8617C92.915 81.7103 95.7636 84.5589 98.6122 83.9643C100.756 83.5218 102.415 81.337 102.208 79.2766C102.055 77.8246 100.963 76.3312 99.5802 75.6536C98.7367 75.2526 97.4368 75.1558 96.5795 75.4324Z" fill="white" fill-opacity="0.15"/>
<path d="M114.374 75.4324C112.922 75.9163 111.609 77.3821 111.304 78.8617C110.71 81.7103 113.558 84.5589 116.407 83.9643C118.55 83.5218 120.21 81.337 120.002 79.2766C119.85 77.8246 118.758 76.3312 117.375 75.6536C116.531 75.2526 115.232 75.1558 114.374 75.4324Z" fill="white" fill-opacity="0.15"/>
<path d="M132.169 75.4324C130.717 75.9163 129.403 77.3821 129.099 78.8617C128.505 81.7103 131.353 84.5589 134.202 83.9643C136.345 83.5218 138.005 81.337 137.797 79.2766C137.645 77.8246 136.553 76.3312 135.17 75.6536C134.326 75.2526 133.026 75.1558 132.169 75.4324Z" fill="white" fill-opacity="0.15"/>
<path d="M149.964 75.4324C148.512 75.9163 147.198 77.3821 146.894 78.8617C146.299 81.7103 149.148 84.5589 151.997 83.9643C154.14 83.5218 155.799 81.337 155.592 79.2766C155.44 77.8246 154.347 76.3312 152.965 75.6536C152.121 75.2526 150.821 75.1558 149.964 75.4324Z" fill="white" fill-opacity="0.15"/>
<path d="M167.759 75.4324C166.307 75.9163 164.993 77.3821 164.689 78.8617C164.094 81.7103 166.943 84.5589 169.791 83.9643C171.935 83.5218 173.594 81.337 173.387 79.2766C173.235 77.8246 172.142 76.3312 170.759 75.6536C169.916 75.2526 168.616 75.1558 167.759 75.4324Z" fill="white" fill-opacity="0.15"/>
<path d="M7.60547 93.1323C6.15352 93.6163 4.83984 95.0821 4.53562 96.5617C3.94101 99.4103 6.78961 102.259 9.6382 101.664C11.7816 101.222 13.4409 99.0369 13.2335 96.9765C13.0814 95.5246 11.989 94.0311 10.6062 93.3536C9.76266 92.9525 8.46281 92.8558 7.60547 93.1323Z" fill="white" fill-opacity="0.15"/>
<path d="M25.4003 93.1323C23.9483 93.6163 22.6346 95.0821 22.3304 96.5617C21.7358 99.4103 24.5844 102.259 27.433 101.664C29.5764 101.222 31.2357 99.0369 31.0283 96.9765C30.8762 95.5246 29.7838 94.0311 28.401 93.3536C27.5575 92.9525 26.2576 92.8558 25.4003 93.1323Z" fill="white" fill-opacity="0.15"/>
<path d="M43.1951 93.1323C41.7431 93.6163 40.4294 95.0821 40.1252 96.5617C39.5306 99.4103 42.3792 102.259 45.2278 101.664C47.3712 101.222 49.0305 99.0369 48.8231 96.9765C48.671 95.5246 47.5786 94.0311 46.1958 93.3536C45.3523 92.9525 44.0524 92.8558 43.1951 93.1323Z" fill="white" fill-opacity="0.15"/>
<path d="M60.9899 93.1323C59.5379 93.6163 58.2242 95.0821 57.92 96.5617C57.3254 99.4103 60.174 102.259 63.0226 101.664C65.166 101.222 66.8253 99.0369 66.6179 96.9765C66.4658 95.5246 65.3734 94.0311 63.9906 93.3536C63.1471 92.9525 61.8472 92.8558 60.9899 93.1323Z" fill="white" fill-opacity="0.15"/>
<path d="M78.7847 93.1323C77.3327 93.6163 76.019 95.0821 75.7148 96.5617C75.1202 99.4103 77.9688 102.259 80.8174 101.664C82.9608 101.222 84.6201 99.0369 84.4127 96.9765C84.2606 95.5246 83.1682 94.0311 81.7854 93.3536C80.9419 92.9525 79.642 92.8558 78.7847 93.1323Z" fill="white" fill-opacity="0.15"/>
<path d="M96.5795 93.1323C95.1275 93.6163 93.8138 95.0821 93.5096 96.5617C92.915 99.4103 95.7636 102.259 98.6122 101.664C100.756 101.222 102.415 99.0369 102.208 96.9765C102.055 95.5246 100.963 94.0311 99.5802 93.3536C98.7367 92.9525 97.4368 92.8558 96.5795 93.1323Z" fill="white" fill-opacity="0.15"/>
<path d="M114.374 93.1323C112.922 93.6163 111.609 95.0821 111.304 96.5617C110.71 99.4103 113.558 102.259 116.407 101.664C118.55 101.222 120.21 99.0369 120.002 96.9765C119.85 95.5246 118.758 94.0311 117.375 93.3536C116.531 92.9525 115.232 92.8558 114.374 93.1323Z" fill="white" fill-opacity="0.15"/>
<path d="M132.169 93.1323C130.717 93.6163 129.403 95.0821 129.099 96.5617C128.505 99.4103 131.353 102.259 134.202 101.664C136.345 101.222 138.005 99.0369 137.797 96.9765C137.645 95.5246 136.553 94.0311 135.17 93.3536C134.326 92.9525 133.026 92.8558 132.169 93.1323Z" fill="white" fill-opacity="0.15"/>
<path d="M149.964 93.1323C148.512 93.6163 147.198 95.0821 146.894 96.5617C146.299 99.4103 149.148 102.259 151.997 101.664C154.14 101.222 155.799 99.0369 155.592 96.9765C155.44 95.5246 154.347 94.0311 152.965 93.3536C152.121 92.9525 150.821 92.8558 149.964 93.1323Z" fill="white" fill-opacity="0.15"/>
<path d="M167.759 93.1323C166.307 93.6163 164.993 95.0821 164.689 96.5617C164.094 99.4103 166.943 102.259 169.791 101.664C171.935 101.222 173.594 99.0369 173.387 96.9765C173.235 95.5246 172.142 94.0311 170.759 93.3536C169.916 92.9525 168.616 92.8558 167.759 93.1323Z" fill="white" fill-opacity="0.15"/>
<path d="M7.60547 110.832C6.15352 111.316 4.83984 112.782 4.53562 114.262C3.94101 117.11 6.78961 119.959 9.6382 119.364C11.7816 118.922 13.4409 116.737 13.2335 114.677C13.0814 113.225 11.989 111.731 10.6062 111.054C9.76266 110.653 8.46281 110.556 7.60547 110.832Z" fill="white" fill-opacity="0.15"/>
<path d="M25.4003 110.832C23.9483 111.316 22.6346 112.782 22.3304 114.262C21.7358 117.11 24.5844 119.959 27.433 119.364C29.5764 118.922 31.2357 116.737 31.0283 114.677C30.8762 113.225 29.7838 111.731 28.401 111.054C27.5575 110.653 26.2576 110.556 25.4003 110.832Z" fill="white" fill-opacity="0.15"/>
<path d="M43.1962 110.832C41.7443 111.316 40.4306 112.782 40.1264 114.262C39.7807 115.88 40.5689 117.636 42.09 118.673C43.5696 119.696 45.2566 119.71 46.75 118.714C49.1976 117.083 49.5295 114.041 47.4829 112.008C46.3075 110.819 44.6205 110.362 43.1962 110.832Z" fill="white" fill-opacity="0.15"/>
<path d="M60.9758 110.832C59.5238 111.316 58.2101 112.782 57.9059 114.262C57.5602 115.88 58.3484 117.636 59.8695 118.673C61.3491 119.696 63.0361 119.71 64.5296 118.714C66.9772 117.083 67.309 114.041 65.2625 112.008C64.0871 110.819 62.4 110.362 60.9758 110.832Z" fill="white" fill-opacity="0.15"/>
<path d="M78.7516 110.832C76.6636 111.524 75.2531 113.819 75.6818 115.838C76.0275 117.484 77.5624 119.019 79.208 119.364C81.8768 119.931 84.6563 117.401 84.3797 114.677C84.2276 113.225 83.1352 111.731 81.7524 111.054C80.9088 110.653 79.609 110.556 78.7516 110.832Z" fill="white" fill-opacity="0.15"/>
<path d="M96.5455 110.832C94.4574 111.524 93.047 113.819 93.4756 115.838C93.8213 117.484 95.3563 119.019 97.0018 119.364C99.6706 119.931 102.45 117.401 102.174 114.677C102.021 113.225 100.929 111.731 99.5462 111.054C98.7027 110.653 97.4028 110.556 96.5455 110.832Z" fill="white" fill-opacity="0.15"/>
<path d="M114.339 110.832C112.251 111.524 110.841 113.819 111.269 115.838C111.615 117.484 113.15 119.019 114.796 119.364C117.464 119.931 120.244 117.401 119.967 114.677C119.815 113.225 118.723 111.731 117.34 111.054C116.496 110.653 115.197 110.556 114.339 110.832Z" fill="white" fill-opacity="0.15"/>
<path d="M132.133 110.832C130.045 111.524 128.635 113.819 129.063 115.838C129.409 117.484 130.944 119.019 132.589 119.364C135.258 119.931 138.038 117.401 137.761 114.677C137.609 113.225 136.517 111.731 135.134 111.054C134.29 110.653 132.99 110.556 132.133 110.832Z" fill="white" fill-opacity="0.15"/>
<path d="M149.929 110.832C148.477 111.316 147.164 112.782 146.86 114.262C146.265 117.11 149.114 119.959 151.962 119.364C154.106 118.922 155.765 116.737 155.557 114.677C155.405 113.225 154.313 111.731 152.93 111.054C152.087 110.653 150.787 110.556 149.929 110.832Z" fill="white" fill-opacity="0.15"/>
<path d="M167.724 110.832C166.272 111.316 164.959 112.782 164.654 114.262C164.06 117.11 166.908 119.959 169.757 119.364C171.9 118.922 173.56 116.737 173.352 114.677C173.2 113.225 172.108 111.731 170.725 111.054C169.881 110.653 168.582 110.556 167.724 110.832Z" fill="white" fill-opacity="0.15"/>
<path d="M7.60547 128.532C6.15352 129.016 4.83984 130.482 4.53562 131.962C3.94101 134.81 6.78961 137.659 9.6382 137.064C11.7816 136.622 13.4409 134.437 13.2335 132.377C13.0814 130.925 11.989 129.431 10.6062 128.754C9.76266 128.353 8.46281 128.256 7.60547 128.532Z" fill="white" fill-opacity="0.15"/>
<path d="M25.4003 128.532C23.9483 129.016 22.6346 130.482 22.3304 131.962C21.7358 134.81 24.5844 137.659 27.433 137.064C29.5764 136.622 31.2357 134.437 31.0283 132.377C30.8762 130.925 29.7838 129.431 28.401 128.754C27.5575 128.353 26.2576 128.256 25.4003 128.532Z" fill="white" fill-opacity="0.15"/>
<path d="M43.1962 128.532C41.7443 129.016 40.4306 130.482 40.1264 131.962C39.7807 133.58 40.5689 135.336 42.09 136.373C43.5696 137.396 45.2566 137.41 46.75 136.414C49.1976 134.783 49.5295 131.74 47.4829 129.708C46.3075 128.519 44.6205 128.062 43.1962 128.532Z" fill="white" fill-opacity="0.15"/>
<path d="M60.9758 128.532C59.5238 129.016 58.2101 130.482 57.9059 131.962C57.5602 133.58 58.3484 135.336 59.8695 136.373C61.3491 137.396 63.0361 137.41 64.5296 136.414C66.9772 134.783 67.309 131.74 65.2625 129.708C64.0871 128.519 62.4 128.062 60.9758 128.532Z" fill="white" fill-opacity="0.15"/>
<path d="M78.7516 128.532C76.6636 129.224 75.2531 131.519 75.6818 133.538C76.0275 135.184 77.5624 136.719 79.208 137.064C81.8768 137.631 84.6563 135.101 84.3797 132.377C84.2276 130.925 83.1352 129.431 81.7524 128.754C80.9088 128.353 79.609 128.256 78.7516 128.532Z" fill="white" fill-opacity="0.15"/>
<path d="M96.5455 128.532C94.4574 129.224 93.047 131.519 93.4756 133.538C93.8213 135.184 95.3563 136.719 97.0018 137.064C99.6706 137.631 102.45 135.101 102.174 132.377C102.021 130.925 100.929 129.431 99.5462 128.754C98.7027 128.353 97.4028 128.256 96.5455 128.532Z" fill="white" fill-opacity="0.15"/>
<path d="M114.339 128.532C112.251 129.224 110.841 131.519 111.269 133.538C111.615 135.184 113.15 136.719 114.796 137.064C117.464 137.631 120.244 135.101 119.967 132.377C119.815 130.925 118.723 129.431 117.34 128.754C116.496 128.353 115.197 128.256 114.339 128.532Z" fill="white" fill-opacity="0.15"/>
<path d="M132.133 128.532C130.045 129.224 128.635 131.519 129.063 133.538C129.409 135.184 130.944 136.719 132.589 137.064C135.258 137.631 138.038 135.101 137.761 132.377C137.609 130.925 136.517 129.431 135.134 128.754C134.29 128.353 132.99 128.256 132.133 128.532Z" fill="white" fill-opacity="0.15"/>
<path d="M149.929 128.532C148.477 129.016 147.164 130.482 146.86 131.962C146.265 134.81 149.114 137.659 151.962 137.064C154.106 136.622 155.765 134.437 155.557 132.377C155.405 130.925 154.313 129.431 152.93 128.754C152.087 128.353 150.787 128.256 149.929 128.532Z" fill="white" fill-opacity="0.15"/>
<path d="M167.724 128.532C166.272 129.016 164.959 130.482 164.654 131.962C164.06 134.81 166.908 137.659 169.757 137.064C171.9 136.622 173.56 134.437 173.352 132.377C173.2 130.925 172.108 129.431 170.725 128.754C169.881 128.353 168.582 128.256 167.724 128.532Z" fill="white" fill-opacity="0.15"/>
<path d="M7.60547 146.232C6.15352 146.716 4.83984 148.182 4.53562 149.662C3.94101 152.51 6.78961 155.359 9.6382 154.764C11.7816 154.322 13.4409 152.137 13.2335 150.077C13.0814 148.625 11.989 147.131 10.6062 146.454C9.76266 146.053 8.46281 145.956 7.60547 146.232Z" fill="white" fill-opacity="0.15"/>
<path d="M25.4003 146.232C23.9483 146.716 22.6346 148.182 22.3304 149.662C21.7358 152.51 24.5844 155.359 27.433 154.764C29.5764 154.322 31.2357 152.137 31.0283 150.077C30.8762 148.625 29.7838 147.131 28.401 146.454C27.5575 146.053 26.2576 145.956 25.4003 146.232Z" fill="white" fill-opacity="0.15"/>
<path d="M43.1962 146.232C41.7443 146.716 40.4306 148.182 40.1264 149.662C39.7807 151.28 40.5689 153.036 42.09 154.073C43.5696 155.096 45.2566 155.11 46.75 154.114C49.1976 152.483 49.5295 149.441 47.4829 147.408C46.3075 146.219 44.6205 145.762 43.1962 146.232Z" fill="white" fill-opacity="0.15"/>
<path d="M60.9758 146.232C59.5238 146.716 58.2101 148.182 57.9059 149.662C57.5602 151.28 58.3484 153.036 59.8695 154.073C61.3491 155.096 63.0361 155.11 64.5296 154.114C66.9772 152.483 67.309 149.441 65.2625 147.408C64.0871 146.219 62.4 145.762 60.9758 146.232Z" fill="white" fill-opacity="0.15"/>
<path d="M78.7542 146.232C77.3022 146.716 75.9885 148.182 75.6843 149.662C75.0897 152.51 77.9383 155.359 80.7869 154.764C82.9302 154.322 84.5896 152.137 84.3822 150.077C84.2301 148.625 83.1377 147.131 81.7549 146.454C80.9113 146.053 79.6115 145.956 78.7542 146.232Z" fill="white" fill-opacity="0.15"/>
<path d="M96.5489 146.232C95.097 146.716 93.7833 148.182 93.4791 149.662C92.8845 152.51 95.7331 155.359 98.5817 154.764C100.725 154.322 102.384 152.137 102.177 150.077C102.025 148.625 100.932 147.131 99.5497 146.454C98.7061 146.053 97.4063 145.956 96.5489 146.232Z" fill="white" fill-opacity="0.15"/>
<path d="M114.344 146.232C112.892 146.716 111.578 148.182 111.274 149.662C110.679 152.51 113.528 155.359 116.376 154.764C118.52 154.322 120.179 152.137 119.972 150.077C119.82 148.625 118.727 147.131 117.344 146.454C116.501 146.053 115.201 145.956 114.344 146.232Z" fill="white" fill-opacity="0.15"/>
<path d="M132.139 146.232C130.687 146.716 129.373 148.182 129.069 149.662C128.474 152.51 131.323 155.359 134.171 154.764C136.315 154.322 137.974 152.137 137.767 150.077C137.614 148.625 136.522 147.131 135.139 146.454C134.296 146.053 132.996 145.956 132.139 146.232Z" fill="white" fill-opacity="0.15"/>
<path d="M149.933 146.232C148.481 146.716 147.168 148.182 146.864 149.662C146.269 152.51 149.117 155.359 151.966 154.764C154.109 154.322 155.769 152.137 155.561 150.077C155.409 148.625 154.317 147.131 152.934 146.454C152.091 146.053 150.791 145.956 149.933 146.232Z" fill="white" fill-opacity="0.15"/>
<path d="M167.728 146.232C166.276 146.716 164.963 148.182 164.658 149.662C164.064 152.51 166.912 155.359 169.761 154.764C171.904 154.322 173.564 152.137 173.356 150.077C173.204 148.625 172.112 147.131 170.729 146.454C169.885 146.053 168.585 145.956 167.728 146.232Z" fill="white" fill-opacity="0.15"/>
<path d="M7.60547 163.932C6.15352 164.416 4.83984 165.882 4.53562 167.362C3.94101 170.21 6.78961 173.059 9.6382 172.464C11.7816 172.022 13.4409 169.837 13.2335 167.777C13.0814 166.325 11.989 164.831 10.6062 164.154C9.76266 163.753 8.46281 163.656 7.60547 163.932Z" fill="white" fill-opacity="0.15"/>
<path d="M25.4003 163.932C23.9483 164.416 22.6346 165.882 22.3304 167.362C21.7358 170.21 24.5844 173.059 27.433 172.464C29.5764 172.022 31.2357 169.837 31.0283 167.777C30.8762 166.325 29.7838 164.831 28.401 164.154C27.5575 163.753 26.2576 163.656 25.4003 163.932Z" fill="white" fill-opacity="0.15"/>
<path d="M43.1951 163.932C41.7431 164.416 40.4294 165.882 40.1252 167.362C39.5306 170.21 42.3792 173.059 45.2278 172.464C47.3712 172.022 49.0305 169.837 48.8231 167.777C48.671 166.325 47.5786 164.831 46.1958 164.154C45.3523 163.753 44.0524 163.656 43.1951 163.932Z" fill="white" fill-opacity="0.15"/>
<path d="M60.9899 163.932C59.5379 164.416 58.2242 165.882 57.92 167.362C57.3254 170.21 60.174 173.059 63.0226 172.464C65.166 172.022 66.8253 169.837 66.6179 167.777C66.4658 166.325 65.3734 164.831 63.9906 164.154C63.1471 163.753 61.8472 163.656 60.9899 163.932Z" fill="white" fill-opacity="0.15"/>
<path d="M78.7847 163.932C77.3327 164.416 76.019 165.882 75.7148 167.362C75.1202 170.21 77.9688 173.059 80.8174 172.464C82.9608 172.022 84.6201 169.837 84.4127 167.777C84.2606 166.325 83.1682 164.831 81.7854 164.154C80.9419 163.753 79.642 163.656 78.7847 163.932Z" fill="white" fill-opacity="0.15"/>
<path d="M96.5795 163.932C95.1275 164.416 93.8138 165.882 93.5096 167.362C92.915 170.21 95.7636 173.059 98.6122 172.464C100.756 172.022 102.415 169.837 102.208 167.777C102.055 166.325 100.963 164.831 99.5802 164.154C98.7367 163.753 97.4368 163.656 96.5795 163.932Z" fill="white" fill-opacity="0.15"/>
<path d="M114.374 163.932C112.922 164.416 111.609 165.882 111.304 167.362C110.71 170.21 113.558 173.059 116.407 172.464C118.55 172.022 120.21 169.837 120.002 167.777C119.85 166.325 118.758 164.831 117.375 164.154C116.531 163.753 115.232 163.656 114.374 163.932Z" fill="white" fill-opacity="0.15"/>
<path d="M132.169 163.932C130.717 164.416 129.403 165.882 129.099 167.362C128.505 170.21 131.353 173.059 134.202 172.464C136.345 172.022 138.005 169.837 137.797 167.777C137.645 166.325 136.553 164.831 135.17 164.154C134.326 163.753 133.026 163.656 132.169 163.932Z" fill="white" fill-opacity="0.15"/>
<path d="M149.964 163.932C148.512 164.416 147.198 165.882 146.894 167.362C146.299 170.21 149.148 173.059 151.997 172.464C154.14 172.022 155.799 169.837 155.592 167.777C155.44 166.325 154.347 164.831 152.965 164.154C152.121 163.753 150.821 163.656 149.964 163.932Z" fill="white" fill-opacity="0.15"/>
<path d="M167.759 163.932C166.307 164.416 164.993 165.882 164.689 167.362C164.094 170.21 166.943 173.059 169.791 172.464C171.935 172.022 173.594 169.837 173.387 167.777C173.235 166.325 172.142 164.831 170.759 164.154C169.916 163.753 168.616 163.656 167.759 163.932Z" fill="white" fill-opacity="0.15"/>
</svg>
