<svg xmlns="http://www.w3.org/2000/svg" version="1.1" viewBox="0 0 3000 1875" width="3000" height="1875">
<defs/><!--ITEM: Illustration component 1--><g transform="translate(92.1875 1293.75) rotate(0.0 492.1875 260.9375)  scale(1.5629291853159677 1.5663079102488686)"><svg width="629.827" height="333.188" viewBox="0.0 0.0 629.827 333.188"><path d="m442.592 316.216-26.49 3.05c-4.69.55-9.41.82-14.13.82h-290.73c-11.98 0-23.91-1.25-35.6-3.76-.87-.18-1.74-.38-2.61-.58-1.89-.44-3.77-.91-5.64-1.41-20.73-5.55-48.76-28.46-62.29-40.34-4.95-4.35-6.49-11.43-3.77-17.44 5.08-11.23 15.05-30.24 31.32-49.37.45-.53.91-1.07 1.37-1.6 4.83-5.55 10.18-11.09 16.11-16.43.69-.63 1.4-1.26 2.11-1.87 6.14-5.38 12.87-10.53 20.22-15.25.85-.55 1.7-1.09 2.57-1.62 7.41-4.58 15.43-8.73 24.1-12.25 115.17-46.85 264.59-43.64 359.64 41.7 8.6 7.73 17.33 20.4 25.34 34.38 19.63 34.26-2.3 77.44-41.52 81.97z" fill="#f75c84"/><path d="m263.852 311.476c-20.72-31.35-38.5-49.28-62.21-69.66-4.93-4.23-14.1-12.1-25.88-21.09 2.82-5.12 5.68-10.37 8.59-15.78l-1.77-.93c-2.86 5.31-5.67 10.46-8.43 15.49-10.61-8.02-23.21-16.81-36.69-24.65-22.5-13.07-43.39-21.24-62.43-24.44-.87.53-1.72 1.07-2.57 1.62 19.4 2.87 40.81 11.08 63.99 24.55 13.5 7.85 26.12 16.67 36.73 24.69-19.19 34.87-35.87 62.78-49.95 83.6-26.87-20.23-50.84-44.34-70.76-71.42-1.26-14.82-1.17-29.97-.23-46.17-.71.61-1.42 1.24-2.11 1.87-.78 14.35-.87 27.91.07 41.17-5.75-8.01-11.16-16.25-16.18-24.74-.46.53-.92 1.07-1.37 1.6 5.51 9.29 11.48 18.3 17.87 27.01.54 6.19 1.3 12.34 2.36 18.48 4.63 27.07 11.84 47.47 20.15 63.07.87.2 1.74.4 2.61.58-8.57-15.61-16.04-36.26-20.79-63.99-.86-5.01-1.53-10.03-2.04-15.08 19.67 26.2 43.11 49.57 69.3 69.28-3.37 4.93-6.58 9.45-9.63 13.55h2.48c2.79-3.78 5.7-7.9 8.74-12.35 5.78 4.3 11.69 8.42 17.73 12.35h3.69c-6.93-4.43-13.7-9.1-20.3-14.01 14.11-20.85 30.8-48.76 49.97-83.57 11.62 8.87 20.67 16.64 25.54 20.83 23.58 20.27 41.26 38.09 61.85 69.24 1.79 2.71 3.46 5.21 5.04 7.51h2.43c-1.81-2.6-3.72-5.46-5.8-8.61z" fill="#ffaac5"/><path d="m624.922 284.796c-9.46 5.99-29.121 18.871-57.851 26.971-58.51 16.48-154.669 40.749-279.069-4.691-60.24-22-113.78-66.7-143.8-100.49-55.82-62.81-57.38-137.71-60.05-159.63-.51-4.16 1.93-8.11 5.88-9.5 4.45-1.57 11.04-3.81 19.42-6.42 2.93-.91 6.08-1.86 9.43-2.85 54.71-16.1 163.72-40.58 262.02-16.9 1.95.47 3.89.96 5.84 1.47 9.45 2.47 18.78 5.4 27.94 8.85 15.07 5.66 29.67 12.7 43.56 21.35 4.79 2.98 9.45 6.04 14 9.17 109.28 75.3 148.48 190.63 157.17 220.8 1.3 4.52-.52 9.35-4.49 11.87z" fill="#ffdc83"/><g fill="#efc15b"><path d="m248.682 164.266c-1.09 1.13-1.9 1.79-2.05 1.92.15-.16.86-.86 2.05-1.92z"/><path d="m302.762 183.796s4.44-1.21 13.12-2.24c-6.49 1.91-13.12 2.24-13.12 2.24z"/><path d="m511.672 250.566s-43.92-56.28-124.05-67.21c-33.9-4.63-58.08-3.43-71.74-1.8 10.97-3.22 21.55-10.94-1.01-29.16-25.91-20.93-57.61 4.21-66.1 11.78 7.95-8.42 30.12-41.84-75.04-77.8-6.07-2.07-15.31-5.29-23.63-6.6-10.94-1.71-14.24.44-14.24.44s-1.62-4.28-5.67-12.41c-1.72-3.45-2.35-13.18-14.46-24.95-3.22-3.13-2.47-11.91 3.15-14.67.09-.05.18-.1.28-.14 52.2-19.48 157.82-42.14 261.74-16.76 1.95.47 3.89.96 5.84 1.47 8.62 2.7 18.32 5.67 27.94 8.85 15.07 5.66 29.67 12.7 43.56 21.35 4.79 2.98 9.45 6.04 14 9.17 66.73 70.47 39.43 198.44 39.43 198.44z"/></g><path d="m468.469 214.444c-.174 0-.35-.045-.51-.141-31.386-18.675-67.119-30.029-103.335-32.836-32.839-2.549-65.331 1.68-96.575 12.555-.522.183-1.092-.095-1.273-.615-.182-.521.094-1.092.616-1.273 31.506-10.967 64.273-15.228 97.386-12.66 36.521 2.831 72.555 14.28 104.203 33.111.475.282.63.896.348 1.371-.187.313-.519.488-.86.488z" fill="#403838"/><path d="m173.716 87.031c-.129 0-.261-.025-.388-.078-21.768-9.18-37.12-6.195-37.272-6.166-.49.101-.978-.177-1.144-.647-.1-.285-10.158-28.623-20.823-37.81-.418-.36-.465-.992-.105-1.41s.992-.465 1.411-.105c10.17 8.761 19.37 33.062 21.12 37.868 3.599-.529 17.935-1.86 37.591 6.427.509.215.748.802.533 1.311-.162.381-.533.61-.923.61z" fill="#403838"/><path d="m567.071 311.766c-58.51 16.48-160.345 38.715-284.745-6.725-60.24-22-95.951-69.38-125.971-103.17 52.67-33.33 117.666-58.999 204.956-44.589 48.12 7.94 93.87 30.79 110.57 43.82 26.71 20.83 69.86 73.004 95.19 110.664z" fill="#ffdc83"/><path d="m463.457 196.263c-.188 0-.379-.053-.549-.165-38.763-25.518-88.585-39.887-148.084-42.707-.552-.026-.978-.495-.952-1.046.026-.552.511-.971 1.046-.952 59.862 2.838 110.022 17.317 149.089 43.035.461.304.589.924.286 1.385-.191.291-.51.45-.836.45z" fill="#403838"/></svg></g><!--ITEM: Illustration component 2--><g transform="translate(907.8125 71.875) rotate(0.0 992.96875 610.9375)  scale(1.563404092846768 1.5628677335843728)"><svg width="1270.265" height="781.816" viewBox="0.0 0.0 1270.265 781.816"><g transform="matrix(3.40967361 0 0 3.41875472 995 140)"><path d="m80.386-24.427-3.081 13.354-177.956 18.627-148.636-18.626 4.483-19.418c1.413-6.121 6.861-10.458 13.141-10.461h298.909c7.449.002 13.487 6.045 13.485 13.497-.001 1.019-.116 2.035-.345 3.027z" fill="#ffaac5"/><path d="m77.782-13.111-43.964 190.391c-1.411 6.119-6.86 10.454-13.139 10.454h-299.005c-5.936-.003-10.978-3.838-12.781-9.164-.006-.018-.012-.032-.015-.05-.393-1.164-.628-2.399-.68-3.68-.003-.082-.009-.167-.009-.249-.003-.117-.006-.231-.006-.348 0-.003 0-.003 0-.006 0-1.018.114-2.036.343-3.03l42.613-184.319h326.643z" fill="#403838"/><path d="m-132.582-13.111-46.963 200.845h-98.737c-5.936-.003-10.978-3.838-12.781-9.164-.006-.018-.012-.032-.015-.05-.367-1.164-.619-2.399-.68-3.68-.003-.082-.009-.167-.009-.249-.003-.117-.006-.231-.006-.348 0-.003 0-.003 0-.006 0-1.018.114-2.036.343-3.03l42.614-184.319h116.234z" fill="#2b2929"/><ellipse cx="-232.143" cy="-26.932" fill="#fcf0e3" rx="6.667" ry="5.283" transform="matrix(.7426 -.6697 .6697 .7426 -41.7077 -162.3942)"/><ellipse cx="-211.798" cy="-26.932" fill="#ffc1d0" rx="6.667" ry="5.283" transform="matrix(.7426 -.6697 .6697 .7426 -36.4717 -148.7695)"/><ellipse cx="-191.454" cy="-26.932" fill="#ffc1d0" rx="6.667" ry="5.283" transform="matrix(.7426 -.6697 .6697 .7426 -31.236 -135.1454)"/><path d="m-227.936 22.443h54.428l-1.062 4.208h-54.312z" fill="#eacaac"/><path d="m-231.724 38.281h54.958l-.973 4.221-54.907-.239z" fill="#eacaac"/><path d="m-150.518 63.49h-116.049l3.472-15.017 116.14-.222z" fill="#5dace2"/><path d="m-235.45 53.881 54.924-.143-1.075 4.487h-54.885z" fill="#fcf0e3"/><path d="m-149.995 5.547-89.706.238 1.17-5.476h89.815z" fill="#eacaac"/><path d="m-165.8 74.165-89.695-.312 1.025-4.727 89.923.019z" fill="#eacaac"/><g fill="#f9e7d7"><path d="m-134.306 111.569h-17.18l-1.184 4.59h17.18z"/><path d="m-142.774 147.681h-17.18l.962-4.384h17.18z"/><path d="m-110.022 5.352h-17.179l.961-4.385h17.18z"/></g><path d="m-38.659 5.352h-61.442l.913-4.385h61.54z" fill="#e54630"/><path d="m58.388 5.352h-88.835l1.011-4.382 88.919-.385z" fill="#f9e7d7"/><path d="m-114.796 26.59h-17.18l.962-4.384h17.18z" fill="#f9e7d7"/><path d="m-51.77 26.59h-53.197l1.037-4.384h53.171z" fill="#e54630"/><path d="m53.519 26.59h-97.071l1.005-4.384h97.047z" fill="#4097ff"/><path d="m-118.528 42.641h-17.18l.962-4.384h17.18z" fill="#f9e7d7"/><path d="m-47.213 42.435h-61.524l1.048-4.468h61.507z" fill="#e54630"/><path d="m49.723 42.393-42.246-.01 1.026-4.416 42.267.042z" fill="#f9e7d7"/><path d="m-.874 42.346h-38.107l1.011-4.379 38.106.088z" fill="#d1a7db"/><path d="m-125.939 73.756h-17.18l.962-4.384h17.179z" fill="#f9e7d7"/><path d="m-92.168 73.633h-23.698l.97-4.152h23.711z" fill="#e54630"/><path d="m7.358 73.865h-91.442l1.008-4.384 91.54-.141z" fill="#4097ff"/><path d="m42.543 73.85-26.863.01 1.006-4.374h26.873z" fill="#d1a7db"/><path d="m-122.4 58.355h-17.18l.962-4.384h17.179z" fill="#f9e7d7"/><path d="m5.9 116.056h-112.637l.913-4.384h112.735z" fill="#e54630"/><path d="m-131.897 100.207h-17.18l.962-4.385h17.18z" fill="#f9e7d7"/><path d="m-81.576 100.207h-40.559l1.041-4.385h40.616z" fill="#e54630"/><path d="m36.52 100.207h-109.564l1.02-4.385h109.59z" fill="#f9e7d7"/><path d="m-76.188 132.103h-33.115l1.005-4.384h33.201z" fill="#4097ff"/><path d="m2.198 132.103h-70.094l1.011-4.384h70.095z" fill="#f9e7d7"/><path d="m-146.399 163.441h-17.18l.962-4.384h17.18z" fill="#f9e7d7"/><path d="m-150.038 179.331h-17.18l.961-4.384h17.18z" fill="#f9e7d7"/></g></svg></g><!--ITEM: Illustration component 3--><g transform="translate(287.5 864.0625) rotate(0.0 1041.40625 479.6875)  scale(2.01847365233192 2.0207663693924065)"><svg width="1031.875" height="474.758" viewBox="0.0 0.0 1031.875 474.758"><path d="m260.003 359.855c-20.653 2.274-51.347-17.242-59.633-52.086-6.114-25.709 69.865 15.012 69.865 15.012z" fill="#e54630"/><path d="m861.83 452.263c-14.261-5.502-18.568-38.666-43.579-49.432s8.438-71.019 25.389-62.601c20.306 10.084 72.113 30.401 101.838 36.46 21.606 4.404 51.971 9.758 71.145 14.241 15.382 3.596 19.165 29.379 11.186 41.683-8.44 13.015-14.358 24.765-51.557 24.765 0-.001-100.16.387-114.422-5.116z" fill="#ffe3c3"/><path d="m868.28 351.121c-8.949-3.661-16.825-7.114-22.645-9.917 0 0-16.753 6.735-23.38 33.213-6.626 26.477 5.038 33.869 5.038 33.869 6.836 5.434 11.74 12.688 15.926 19.781 5.22-3.704 11.312-8.605 16.426-14.303 10.518-11.716 10.275-48.938 8.635-62.643z" fill="#eacaac"/><path d="m429.83 271.782c6.923-28.236 103.531-132.871 192.89-146.676 95.868-14.81 104.819 154.092 38.948 280.739-1.483 2.852-59.213-3.004-64.343-16.337-5.131-13.333-12.143-111.828-12.143-111.828s-97.114 93.707-119.735 69.994c-22.622-23.714-40.793-54.78-35.617-75.892z" fill="#5dace2"/><path d="m679.266 208.421c-7.074-15.663-39.729-20.354-57.823-32.319s-16.228-18.447-20.965-26.95c-.415-.745-3.473-9.102-6.648-16.667-26.722 9.334-53.163 25.119-76.772 42.955 0 0-2.382 34.465 23.708 43.308 26.09 8.842 145.574 5.336 138.5-10.327z" fill="#3591ba"/><path d="m853.987 325.464c-14.247-31.476-47.725-47.912-82.367-43.697-8.843-7.975-20.59-18.61-36.611-33.364-59.116-54.444-99.488-50.667-122.273-53.749 0 0-118.365 42.787-148.928 17.614-22.594-18.609-214.387 118.543-213.79 123.837 7.614 67.528 62.408 120.088 129.26 121.252l.027.028c.154-.008.318-.014.479-.021.586.008 1.171.021 1.759.021 2.954 0 5.883-.111 8.789-.309 23.657-.716 69.559-4.231 114.384-39.405 35.608-27.942 57.123-47.035 69.023-61.014 6.083 8.577 14.956 14.481 26.246 18.924 15.124 5.951 60.861 16.422 83.742 20.069 3.663.584 7.198 1.038 10.624 1.381.64 1.752 1.323 3.495 2.102 5.215 18.32 40.474 68.437 56.097 111.939 34.894s63.915-71.202 45.595-111.676z" fill="#5dace2"/><path d="m385.518 292.202s-31.252-26.452-69.886-3.015-16.884 47.866-14.075 46.858c16.464-5.913 45.039-13.291 59.618-14.737 5.621-9.384 13.874-19.185 24.343-29.106z" fill="#3591ba"/><path d="m527.68 194.411c-27.682-65.85-70.372-102.726-81.74-111.947-.009-.007-.018-.014-.027-.021-20.976-20.697-54.387-36.607-94.863-45.23 1.425-4.209 2.165-9.121-2.796-11.293-9.255-4.052-90.07-33.237-125.979-24.191-16.319 4.111-47.362 18.106-36.333 40.158-72.732 19.127-124.681 59.119-129.8 103.571-23.215 9.169-40.306 26.488-48.865 44.338-17.439 36.372-3.731 63.269 43.198 84.569 36.282 16.467 75.343 27.057 106.309 29.42 12.747.973 26.881-5.355 39.677-21.514.339 14.489.597 3.89 3.336 22.677 2.009 13.775 16.121 30.125 39.173 42.402 9.961 5.305 42.709.692 70.625-14.733 1.987-1.098 3.917-2.274 5.792-3.524 16.044-9.176 25.833-16.446 41.896-22.947 6.341-2.566 13.101-5.03 20.319-7.498 17.793-6.082 41.89-8.396 62.089-8.761 46.513 24.961 103.487-9.066 103.487-9.066s11.917-21.196-15.498-86.41z" fill="#ff5e43"/><path d="m429.862 161.675c-4.56-4.973-2.599-23.997-11.527-30.82-.19 1-2.997 15.656-6.903 29.141l-.136.481c7.619 3.913 14.75 8.666 21.568 14.913 3.026 2.773 2.106-8.145-3.002-13.715z" fill="#e54630"/><path d="m330.149 34.145c3.642-4.848-73.233-28.293-92.719-24.93-12.334 2.129-38.007 6.589-31.429 15.714 6.577 9.125 114.72 21.766 124.148 9.216z" fill="#e54630"/><path d="m284.339 60.659c-41.279 5.243-89.995 4.318-95.71-11.596-1.262-3.514-1.601-5.018-2.679-7.177-1.274.335-2.542.677-3.803 1.024-7.438 13.8 1.356 24.351 14.236 28.086 49.589 14.381 102.546-12.19 87.956-10.337z" fill="#e54630"/><path d="m72.392 107.5c-9.085 11.978-14.733 24.775-16.25 37.967 13.825-5.461 29.817-8.037 47.482-6.1-4.287-1.925-8.714-3.787-12.75-5.362-14.154-5.521-17.946-16.268-18.482-26.505z" fill="#e54630"/><path d="m204.914 203.674c15.782 21.601 17.534 30.497 5.121 56.385-.705 1.47-1.425 2.908-2.155 4.324 5.928-2.374 9.896-9.999 15.691-19.195 7.695-12.21 6.054-32.206 1.282-48.942-4.771-16.736-18.123-39.206-28.383-51.205.001-0 9.514 24.265 8.444 58.633z" fill="#e54630"/><path d="m310.024 253.939-32.622 18.581-55.168 2.766-16.255 30.167c-2.333-1.609-3.702-2.63-3.702-2.63l-2.585 1.4c.036.238.071.476.107.724 2.009 13.775 16.121 30.125 39.173 42.402 9.961 5.305 42.709.692 70.625-14.733 1.987-1.098 3.917-2.275 5.792-3.524 16.042-9.175 25.83-16.444 41.89-22.945.002.001.006.003.008.004 6.343-2.567 13.095-5.036 20.316-7.504 8.316-2.842 18.012-4.859 28.041-6.241l-12.63-28.024z" fill="#e54630"/><path d="m472.703 292.19c-.06 0-.119-.007-.179-.02-.459-.099-.752-.55-.653-1.009 5.261-24.558 1.632-50.909-10.219-74.201-14.32-28.148-29.496-44.814-50.745-55.728-.417-.214-.582-.727-.367-1.145.214-.417.725-.583 1.145-.367 21.591 11.089 36.987 27.977 51.483 56.468 12.026 23.639 15.708 50.391 10.365 75.328-.084.4-.438.674-.83.674z" fill="#2b2929"/><path d="m411.432 160.847c-.078 0-.157-.012-.236-.034-.451-.131-.711-.602-.58-1.053 3.987-13.767 6.771-28.565 6.798-28.713.088-.461.527-.767.992-.68.461.087.766.53.68.992-.028.148-2.826 15.025-6.837 28.873-.108.373-.448.615-.817.615z" fill="#2b2929"/><path d="m320.532 56.217c-.385 0-.733-.264-.826-.654-.108-.456.174-.915.631-1.023 14.135-3.359 24.649-9.258 28.846-16.182.242-.402.767-.53 1.167-.286.401.243.53.766.286 1.167-4.495 7.419-15.116 13.439-29.906 16.955-.067.015-.133.023-.198.023z" fill="#2b2929"/><path d="m204.913 204.524c-.456 0-.833-.361-.849-.821l-.089-2.659c-.921-27.806-1.717-51.818-19.129-69.944-.325-.339-.314-.877.024-1.202.34-.324.877-.313 1.202.024 17.862 18.596 18.707 44.083 19.602 71.065l.089 2.659c.016.469-.352.862-.821.878-.009 0-.019 0-.029 0z" fill="#2b2929"/><path d="m200.368 278.225c-.159 0-.319-.045-.463-.138-.394-.256-.505-.783-.249-1.177 3.427-5.269 6.661-11.062 9.612-17.219 12.322-25.698 14.385-36.963-28.797-83.673-.318-.345-.298-.883.047-1.201s.883-.298 1.201.047c21.739 23.515 32.023 38.004 35.498 50.012 3.706 12.806-.514 23.24-6.416 35.55-2.983 6.224-6.254 12.081-9.72 17.412-.162.25-.434.387-.713.387z" fill="#2b2929"/><path d="m620.644 84.868-50.325 112.61c-2.812 6.302-7.601 11.514-13.643 14.848l-141.66 78.264c-7.805 4.301-16.874 5.719-25.619 4.005l-120.432-23.71c-5.094-1.008-5.732-8.856-5.732-8.856l165.828-83.074 5.323-15.242c3.093-8.849 9.681-16.042 18.226-19.898l33.442-15.109 122.865-55.512c7.419-3.353 15.047 4.241 11.727 11.674z" fill="#ffe3c3"/><path d="m486.052 128.707-20.09 8.951c-10.02 4.464-17.67 12.977-21.043 23.415l-40.205 124.4c-2.033 6.444-8.547 10.366-15.194 9.147l-.12-.024-131.62-25.908 2.55-4.148c1.386-2.255 4.025-3.415 6.624-2.911l121.475 23.538c3.543.686 7.04-1.385 8.141-4.821l32.492-101.39 5.323-15.242c3.093-8.849 9.681-16.042 18.226-19.898z" fill="#eacaac"/><path d="m287.928 257.677 144.788-71.979-17.991 51.406-44.134 33.985z" fill="#eacaac"/><path d="m515.434 208.343c-1.01-.108-2.003-.338-2.957-.687-9.955-3.639-12.741-18.422-6.626-35.151 4.54-12.421 13.962-24.436 24.775-23.277 1.01.108 2.003.338 2.958.687 3.162 1.155 8.62 4.65 9.65 15.067.593 5.995-.481 13.128-3.023 20.083-4.541 12.421-13.963 24.437-24.777 23.278z" fill="#eacaac"/><ellipse cx="523.03" cy="178.785" fill="#fff" rx="24.018" ry="11.571" transform="matrix(.3433 -.9392 .9392 .3433 175.5469 608.6454)"/><path d="m689.154 234.523c13.55 39.404-21.425 87.858-124.231 125.754s-197.132 36.673-210.682-2.73c-13.55-39.404 59.444-101.39 160.423-144.232 91.518-38.828 160.94-18.195 174.49 21.208z" fill="#5dace2"/><path d="m606.923 113.428c2.633.654 15.032 2.084 16.283 12.836.733 6.3-17.554 6.112-22.129 3.838s-3.817-13.299-3.817-13.299 8.405-3.688 9.663-3.375z" fill="#f7b4a3"/><path d="m619.62 143.117c-.609-6.882-21.188-6.249-25.848-4.885-4.66 1.365-14.281 4.69-14.271 11.419.011 6.729 19.299 6.548 26.033 6.445 6.733-.102 15.143-1.026 14.086-12.979z" fill="#f7b4a3"/><path d="m622.967 125.34c-1.708-7.226-24.823-3.677-29.876-1.576s-15.411 6.979-14.4 14.126c1.01 7.147 22.737 4.258 30.316 3.208 7.579-1.051 16.926-3.208 13.96-15.758z" fill="#f7b4a3"/><path d="m589.788 143.466c-4.465 0-7.819-.613-9.849-2.088-1.181-.858-1.884-1.989-2.09-3.362-.851-5.683 5.46-11.745 15.704-15.085.447-.146.926.1 1.072.545.146.446-.099.927-.545 1.072-9.279 3.024-15.263 8.46-14.55 13.216.138.918.598 1.65 1.408 2.239 4.33 3.146 17.033 1.565 30.116-.612.47-.077.901.236.979.699s-.236.901-.699.979c-8.635 1.437-15.96 2.397-21.546 2.397z" fill="#2b2929"/><path d="m588.91 140.348c-2.687 0-6.415-.923-6.954-3.128-.634-2.597 1.745-5.308 3.976-6.84 1.738-1.194 4.059-2.146 5.37-1.236 2.092 1.451 2.323 6.992 2.063 8.953-.173 1.298-1.585 2.112-3.876 2.235-.185.011-.379.016-.579.016zm1.103-9.873c-.553 0-1.682.319-3.118 1.306-1.862 1.28-3.686 3.402-3.286 5.035.23.947 2.95 1.984 5.79 1.819 1.515-.081 2.246-.495 2.281-.763.325-2.449-.293-6.601-1.347-7.332-.059-.041-.168-.065-.32-.065z" fill="#2b2929"/><path d="m590.441 154.038c-1.567 0-3.557-.604-5.017-1.465-1.907-1.123-2.83-2.578-2.6-4.097.316-2.078 4.262-2.932 6.304-3.094 1.726-.136 3.884-.001 4.336 1.421.615 1.93.578 5.438-1.099 6.731-.454.351-1.135.504-1.924.504zm-.288-7.002c-.956 0-2.208.139-3.495.519-1.546.455-2.125.999-2.151 1.178-.161 1.06 1.046 1.943 1.78 2.377 2.074 1.221 4.575 1.436 5.041 1.08.854-.66 1.017-3.304.518-4.87-.151-.16-.79-.284-1.693-.284zm-6.488 1.569h.01z" fill="#2b2929"/><path d="m617.125 98.276c-5.369-5.586-15.099-2.377-23.214 5.074-5.699 5.232-9.384 13.83-4.915 18.105 5.073 4.853 18.198-.999 22.599-4.716 5.684-4.8 11.665-12.08 5.53-18.463z" fill="#f7b4a3"/><path d="m596.054 120.915c-2.189 0-4.365-.508-5.221-1.834-1.466-2.274-.234-5.497 1.407-7.754 1.278-1.757 3.214-3.484 4.821-3.056 4.068 1.082 5.853 6.117 5.82 9.348-.007.713-.424 2.026-3.131 2.809-1.044.302-2.373.487-3.696.487zm.48-11.012c-.504 0-1.736.799-2.918 2.423-1.35 1.855-2.291 4.379-1.354 5.833h.001c.703 1.091 4.308 1.418 7.017.635 1.245-.359 1.899-.872 1.903-1.192.02-2.022-1.1-6.768-4.559-7.688-.026-.007-.057-.011-.09-.011z" fill="#2b2929"/><path d="m594.519 124.97c-3.375 0-6.347-1.315-7.787-6.35-.129-.451.132-.922.584-1.051.455-.13.922.133 1.051.584 1.457 5.098 4.335 5.625 9.129 4.826 5.135-.858 13.435-6.935 15.376-8.515.364-.295.9-.241 1.195.123.297.363.241.899-.123 1.195-2.475 2.015-10.757 7.969-16.168 8.872-1.102.186-2.2.316-3.257.316z" fill="#2b2929"/><path d="m565.199 334.255-.011.006c0 21.266-6.248 37.813-10.485 41.728 8.054-7.409 14.302-13.774 19.034-19.332-4.262-6.01-7.147-13.344-8.538-22.402z" fill="#3591ba"/><path d="m770.539 281.908c7.118 14.605 8.911 19.173 2.241 41.342 28.127-21.969 2.438-36.811 22.461-41.165-8.006-1.216-16.325-1.3-24.702-.177z" fill="#3591ba"/><path d="m741.161 377.483c-15.663-21.44-35.368-10.392-71.813-2.755-35.888 7.52-39.738 5.563-58.255 4.32-.27-.018-1.666-.21-1.846-.265-2.633-.818-6.189-1.993-9.264-3.203-8.503-3.346-15.634-7.522-21.235-13.044-3.561 6.995-6.722 14.368-7.949 22.395-2.4 15.705.729 32.675 21.032 39.818 17.731 6.238 61.735.669 70.863-18.198 1.545-3.194 4.019-7.876 6.881-13.445 5.242 1.022 10.062 1.893 14.151 2.544 30.565 4.871 52.802 1.217 68.181-8.046-3.662-2.45-7.478-5.648-10.746-10.121z" fill="#3591ba"/><path d="m222.873 250.589c10.03-7.688 24.056-20.917 29.713-25.506 7.442-6.037 19.062-7.272 15.909 5.463-1.41 5.776-3.349 11.409-5.794 16.829z" fill="#f7b4a3"/><path d="m175.515 290.521c9.525 4.781 15.227 9.896 36.463 19.84 29.385 16.271 56.296-.14 63.33-11.356 15.41 13.502 29.026 16.04 32.061 13.945 5.698-3.933 8.015-13.271-11.229-33.723 7.929 15.53 26.968 26.183 31.526 15.706 2.799-6.434-6.356-25.192-21.589-38.551 2.248-3.652 37.386-2.836 39.564-11.942 3.049-12.748-55.386-20.727-71.032-15.063-21.346 7.728-30.605 10-46.548 16.213-8.289-4.518-10.398-4.934-22.919-12.226-9.959-5.8-42.936 50.476-29.627 57.157z" fill="#f7b4a3"/><g fill="#2b2929"><path d="m328.316 244.023c-2.077 0-4.519-.456-5.208-1.776-1.279-2.45-.934-9.088 1.487-10.676.392-.257.919-.147 1.177.245.257.393.147.919-.245 1.177-1.519.996-1.913 6.551-.912 8.467.149.29 1.553.936 4.139.855 3.663-.131 8.228-1.768 10.055-5.969.187-.432.687-.628 1.118-.44s.628.688.44 1.118c-2.142 4.926-7.372 6.841-11.553 6.99-.163.005-.329.009-.498.009z"/><path d="m229.163 246.363c-.271 0-.538-.129-.702-.369-.266-.388-.166-.917.221-1.182 2.976-2.037 34.799-14.438 39.697-15.108.461-.068.895.262.957.727.064.465-.262.894-.727.957-4.575.627-36.183 12.921-38.967 14.827-.147.101-.314.148-.479.148z"/><path d="m306.075 257.231c-.185 0-.371-.06-.527-.184-11.775-9.351-23.11-5.472-35.112-1.367-1.008.345-2.016.689-3.022 1.026-.45.146-.928-.093-1.076-.537-.148-.445.092-.927.537-1.076 1.004-.335 2.008-.678 3.012-1.021 11.905-4.072 24.219-8.285 36.719 1.644.368.292.43.827.138 1.194-.17.211-.418.321-.669.321z"/><path d="m308.35 294.874c-.271 0-.535-.128-.7-.366-14.733-21.331-25.98-19.324-38.999-17.004-1.899.338-3.862.688-5.858.967-.457.069-.894-.259-.959-.725-.065-.465.259-.895.725-.959 1.964-.274 3.911-.621 5.794-.957 13.031-2.323 25.344-4.517 40.696 17.711.267.387.17.916-.216 1.183-.148.101-.317.15-.483.15z"/><path d="m305.496 307.743c-3.615 0-8.96-3.3-11.505-6.392-2.398-2.912-1.542-4.576-.817-5.31 1.844-1.864 7.821-5.402 10.547-3.51 1.701 1.181 5.674 7.009 5.632 11.18-.021 1.949-.927 2.957-1.685 3.46-.594.397-1.337.572-2.172.572zm-11.113-10.506c-.776.786.385 2.384.921 3.034 2.811 3.413 9.305 6.89 11.425 5.484.611-.406.914-1.081.924-2.062.035-3.449-3.541-8.821-4.901-9.766-1.501-1.042-6.454 1.373-8.369 3.31z"/><path d="m322.296 293.063c-3.497 0-8.393-3.436-10.693-6.321-2.005-2.516-1.768-4.087-1.215-4.963v-.001c1.356-2.15 4.413-4.073 8.918-3.025 3.14.73 6.36 6.28 6.566 10.048.153 2.797-1.299 3.733-2.178 4.042-.429.15-.9.22-1.398.22zm-10.47-10.377c-.35.554.075 1.702 1.106 2.996 2.484 3.117 7.872 6.376 10.198 5.557.764-.269 1.115-1.058 1.045-2.346-.181-3.3-3.078-7.978-5.254-8.484-3.094-.72-5.742.132-7.095 2.277z"/><path d="m574.303 358.291c-.26 0-.517-.118-.684-.343-4.797-6.453-7.83-14.159-9.271-23.558-.071-.464.247-.897.711-.969.465-.071.897.247.969.711 1.399 9.117 4.329 16.576 8.957 22.802.279.377.201.909-.176 1.189-.152.113-.33.168-.506.168z"/><path d="m771.438 282.453c-.203 0-.407-.072-.569-.219-8.574-7.733-20.464-18.497-36.436-33.206-51.072-47.037-113.551-65.463-171.407-50.555-.452.118-.918-.156-1.035-.611-.117-.454.156-.918.611-1.035 58.427-15.056 121.477 3.516 172.983 50.951 15.966 14.703 27.851 25.463 36.422 33.194.349.314.376.852.062 1.2-.168.187-.399.281-.631.281z"/></g><path d="m590.158 398.405c-2.074 17.75-6.515 39.502-5.681 47.549 1.215 11.736 166.216-40.867 166.216-43.226s10.053-13.192-3.31-16.82-84.441 4.057-95.127 3.599c-16.533-3.795-60.615-3.795-62.098 8.898z" fill="#eacaac"/><path d="m652.024 390.304c-.035 0-.07-.002-.106-.006-18.071-2.261-34.367-7.38-45.053-11.033-.443-.152-.681-.636-.529-1.08.152-.443.631-.679 1.08-.529 10.613 3.63 26.797 8.714 44.713 10.955.466.059.796.483.738.949-.054.429-.42.744-.843.744z" fill="#2b2929"/><path d="m584.902 452.661c-3.554-22.047 19.573-33.497 44.58-36.315 26.659-3.004 97.825-27.459 117.602-29.873 16.948-2.069 27.09 53.988-15.79 71.284-34.616 13.963-140.37 32.26-146.392-5.096z" fill="#ffe3c3"/><path d="m1016.623 390.931c-3.204-.749-6.726-1.523-10.462-2.312-5.588 3.977-9.825 12.449-11.824 27.917-1.626 12.583-1.465 27.455.478 39.553 21.046-3.387 26.213-13.02 32.993-23.475 7.981-12.304 4.197-38.087-11.185-41.683z" fill="#eacaac"/><path d="m882.818 438.769c-10.794-9.666-28.25-16.194-41.894-14.468 7.642 12.108 12.58 24.75 20.907 27.962 4.376 1.688 16.846 2.822 32.023 3.582-1.671-6.063-5.305-11.944-11.036-17.076z" fill="#eacaac"/><path d="m749.268 386.534c-.573-.225-1.19-.438-1.885-.626-3.222-.875-9.804-1.091-18.081-.923 4.302 12.363 8.081 26.071 11.052 40.64 1.703 8.353 3.051 16.549 4.059 24.485 25.898-21.05 18.473-61.2 4.855-63.576z" fill="#eacaac"/></svg></g><!--ITEM: Illustration component 4--><g transform="translate(654.6875 515.625) rotate(0.0 160.9375 191.40625)  scale(2.015560912990388 2.0196178256580164)"><svg width="159.695" height="189.547" viewBox="0.0 0.0 159.695 189.547"><circle cx="79.344" cy="100.938" fill="#2b2929" r="75.088"/><circle cx="136.683" cy="108.261" fill="#dda094" r="22.098"/><ellipse cx="84.5061" cy="107.4962" fill="#f7b4a3" rx="65.9588" ry="48.0751" transform="matrix(.9661 -.2581 .2581 .9661 -24.8819 25.4537)"/><ellipse cx="92.8673" cy="142.6465" fill="#f7b4a3" rx="64.7893" ry="46.4482" transform="matrix(.9899 -.1418 .1418 .9899 -19.2888 14.6099)"/><path d="m135.153 140.417c-.209 0-.418-.076-.582-.23-.342-.321-.358-.859-.037-1.201 1.524-1.625 3.466-4.469 3.005-5.706-.189-.51-1.55-2.107-5.34-4.505-.397-.251-.516-.776-.265-1.173.252-.396.777-.514 1.173-.265 3.354 2.122 5.55 4.071 6.025 5.349.987 2.653-2.626 6.684-3.36 7.464-.167.177-.392.267-.619.267z" fill="#2b2929"/><path d="m116.057 155.606c13.119-2.656 17.227-5.129 19.056-6.511 1.274-.962-2.029 9.816-6.116 12.932-8.477 6.461-15.985-5.805-12.94-6.421z" fill="#fff"/><path d="m15.679 115.185c-1.832 1.841 16.94 12.217 33.195 9.252 34.157-6.229 62.085-26.488 65.702-51.589 11.871 17.747 25.558 15.414 32.938 15.255-18.728-27.481-57.438-47.699-131.835 27.082z" fill="#dda094"/><ellipse cx="139.7581" cy="109.6622" fill="#fff" rx="11.6473" ry="7.6482" transform="matrix(.8792 -.4765 .4765 .8792 -35.3673 79.8426)"/><g fill="#2b2929"><path d="m149.9981 104.1124c-.824-1.5203-2.359-2.4966-4.2651-2.9207-5.3994 1.0465-9.478 5.7942-9.478 11.4993 0 2.0194.5112 3.9194 1.4106 5.5781 1.8548-.2314 3.8263-.8474 5.7368-1.8828 5.6553-3.0651 8.6084-8.5603 6.5957-12.2739z"/><path d="m127.534 101.037c-1.586 0-3.124-.841-3.944-2.327-1.2-2.177-.409-4.914 1.767-6.114 6.747-3.722 11.558-4.984 18.074-6.012 2.456-.385 4.76 1.288 5.146 3.744.387 2.455-1.289 4.759-3.744 5.146-5.751.906-9.481 1.886-15.129 5.002-.689.38-1.434.561-2.17.561z"/><path d="m77.843 112.483c-1.831 0-3.553-1.126-4.223-2.945-.859-2.332.335-4.919 2.667-5.778 7.7-2.836 15.741-4.217 26.071-4.477 2.53-.088 4.55 1.9 4.612 4.386.062 2.484-1.901 4.55-4.386 4.612-9.302.233-16.453 1.443-23.187 3.924-.512.188-1.038.278-1.554.278z"/><path d="m66.991 30.067c-41.114 6.512-69.163 45.121-62.65 86.234.402 2.54.929 5.03 1.57 7.466 13.655 3.014 29.166 2.78 44.844-1.408 33.199-8.87 56.944-32.714 60.485-57.814 4.245 7.566 10.818 14.087 19.316 18.381 7.022 3.548 14.345 6.238 21.585 6.081-8.652-38.459-45.666-65.195-85.15-58.94z"/><ellipse cx="66.4516" cy="19.6177" rx="20.4978" ry="8.9605" transform="matrix(.3234 -.9463 .9463 .3234 26.3965 76.1531)"/><ellipse cx="48.5331" cy="27.8356" rx="6.1072" ry="15.1615" transform="matrix(.8399 -.5428 .5428 .8399 -7.3372 30.8001)"/></g><path d="m97.998 183.983c-35.581 2.138-65.781-15.102-69.053-38.88-.255 2.576-.225 5.179.148 7.789.32 2.232.875 4.389 1.631 6.47 6.978 17.883 28.822 29.807 54.761 30.165.335.004.667.018 1.004.018.452.001.909-.014 1.363-.02.634-.009 1.266-.012 1.904-.034.337-.012.677-.037 1.015-.052.735-.034 1.47-.066 2.21-.118.797-.057 1.598-.133 2.399-.211.261-.025.521-.042.783-.07 1.09-.116 2.184-.252 3.281-.409 17.002-2.435 31.767-9.398 42.136-18.783-11.335 7.84-26.579 13.113-43.582 14.135z" fill="#dda094"/><circle cx="22.869" cy="140.079" fill="#f7b4a3" r="22.869"/><path d="m22.866 156.433c-8.906 0-16.217-7.176-16.349-16.109-.065-4.368 1.574-8.499 4.617-11.634 3.042-3.135 7.123-4.896 11.49-4.961.503-.019.855.368.862.837.007.47-.367.855-.837.862-3.913.059-7.57 1.637-10.296 4.445-2.727 2.809-4.196 6.511-4.138 10.425.119 8.005 6.67 14.435 14.649 14.435.078 0 .158-.003.233-.001.464 0 .843.372.85.837.007.47-.367.855-.837.862-.08.002-.162.002-.244.002z" fill="#2b2929"/><ellipse cx="92.3026" cy="125.799" fill="#fff" rx="17.596" ry="11.2136" transform="matrix(.9661 -.2581 .2581 .9661 -29.3441 28.0891)"/><path d="m98.2043 115.571c-7.7639 2.0743-12.3649 10.092-10.2766 17.9078.3904 1.4611.9874 2.8112 1.75 4.028 1.7853-.0928 3.6409-.3724 5.5195-.8743 9.3887-2.5085 15.7038-9.3923 14.1052-15.3756-.7606-2.8467-3.187-4.9651-6.5212-6.1458-1.5035-.0876-3.0437.0503-4.5769.4599z" fill="#2b2929"/></svg></g><!--ITEM: Illustration component 5--><g transform="translate(334.375 1531.25) rotate(0.0 323.4375 142.1875)  scale(1.5749934261143954 1.574786798095027)"><svg width="410.716" height="180.58" viewBox="0.0 0.0 410.716 180.58"><path d="m410.716 160.375c-58.51 16.48-160.345 38.715-284.745-6.725-60.24-22.001-95.951-69.381-125.971-103.171 52.67-33.33 117.666-58.999 204.956-44.589 48.12 7.94 93.87 30.79 110.57 43.82 26.71 20.83 69.86 73.005 95.19 110.665z" fill="#ffdc83"/><path d="m307.103 44.872c-.188 0-.379-.053-.549-.165-38.763-25.519-88.586-39.888-148.084-42.708-.552-.026-.978-.495-.952-1.046.026-.553.513-.981 1.046-.952 59.862 2.838 110.023 17.317 149.089 43.036.461.304.589.924.286 1.385-.192.291-.511.45-.836.45z" fill="#403838"/></svg></g></svg>